# xmcd CD database file
#
# Track frame offsets:
#	150
#	29879
#	59907
#	106957
#	136485
#	154731
#	192724
#
# Disc length: 2913 seconds
#
# Revision: 3
# Processed by: cddbd v1.5.2PL0 Copyright (c) Steve Scherf et al.
# Submitted via: CDex 1.51
#
DISCID=6f0b5f07
DTITLE=Gary Clark Jr. - Live - CD2
DYEAR=2014
DGENRE=Blues
TTITLE0=Ain't Messin 'Round (Live)
TTITLE1=If Trouble Was Money (Live)
TTITLE2=Third Stone From The Sun/If You Love Me Like You Say (Live)
TTITLE3=Please Come Home (Live)
TTITLE4=Blak And Blu (Live)
TTITLE5=Bright Lights (Live)
TTITLE6=When The Sun Goes Down (Live)
EXTD=YEAR: 2014
EXTT0=
EXTT1=
EXTT2=
EXTT3=
EXTT4=
EXTT5=
EXTT6=
PLAYORDER=
